<svg width="119" height="2" viewBox="0 0 119 2" fill="none" xmlns="http://www.w3.org/2000/svg">
<rect width="2" height="2" rx="1" fill="#FD2016"/>
<rect x="5" width="2" height="2" rx="1" fill="#FD2016"/>
<rect x="10" width="2" height="2" rx="1" fill="#FD2016"/>
<rect x="15" width="2" height="2" rx="1" fill="#FD2016"/>
<rect x="20" width="2" height="2" rx="1" fill="#FD2016"/>
<rect x="25" width="2" height="2" rx="1" fill="#FD2016"/>
<rect x="30" width="2" height="2" rx="1" fill="#FD2016"/>
<rect x="35" width="2" height="2" rx="1" fill="#FD2016"/>
<rect x="40" width="2" height="2" rx="1" fill="#FD2016"/>
<rect x="45" width="2" height="2" rx="1" fill="#FD2016"/>
<rect x="50" width="2" height="2" rx="1" fill="#FD2016"/>
<rect x="55" width="2" height="2" rx="1" fill="#FD2016"/>
<rect x="60" width="2" height="2" rx="1" fill="#FD2016"/>
<rect x="65" width="2" height="2" rx="1" fill="#FD2016"/>
<rect x="70" width="2" height="2" rx="1" fill="#FD2016"/>
<rect x="75" width="2" height="2" rx="1" fill="#FD2016"/>
<rect x="80" width="2" height="2" rx="1" fill="#FD2016"/>
<rect x="85" width="2" height="2" rx="1" fill="#FD2016"/>
<rect x="90" width="2" height="2" rx="1" fill="#FD2016"/>
<rect x="95" width="2" height="2" rx="1" fill="#FD2016"/>
<rect x="100" width="2" height="2" rx="1" fill="#FD2016"/>
<rect x="105" width="2" height="2" rx="1" fill="#FD2016"/>
<rect x="110" width="2" height="2" rx="1" fill="#FD2016"/>
<rect x="115" width="2" height="2" rx="1" fill="#FD2016"/>
</svg>
